<svg xmlns="http://www.w3.org/2000/svg" width="74" height="74" fill="none"><g clip-path="url(#clip0_365_53826)"><path d="M72.753 23.876L19.525 46.542c-4.414 1.868-8.121 2.802-11.12 2.802-3.397 0-5.859-1.189-7.387-3.566C.056 44.25-.227 42.312.17 39.963c.397-2.349 1.444-4.853 3.141-7.513 1.415-2.15 3.736-4.98 6.962-8.49-1.132 1.812-1.925 3.68-2.377 5.604-.85 3.622-.085 6.282 2.292 7.98 1.132.792 2.688 1.188 4.669 1.188 1.585 0 3.367-.254 5.348-.764l52.55-14.092z" fill="#111"/></g><defs><clipPath id="clip0_365_53826"><path fill="#fff" d="M0 0h73.22v73.22H0z"/></clipPath></defs></svg>