<svg xmlns="http://www.w3.org/2000/svg" width="74" height="74" fill="none"><g clip-path="url(#clip0_365_53828)" fill="#000"><path d="M.219 23.246c.008.03.152.473.313.984.291.908.498 1.563.954 2.982.123.384.27.849.325 1.03.06.186.266.845.47 1.466.354 1.103 1.55 4.837 1.84 5.766.085.258.263.815.398 1.242.14.427.469 1.453.735 2.285.262.828.557 1.757.659 2.061.32.997.853 2.674 1.026 3.215.093.295.334 1.043.533 1.664.198.621.515 1.614.7 2.205l.343 1.077 3.497-.012 3.498-.009.127-.334c.067-.181.24-.663.388-1.064.144-.401.473-1.301.73-1.998.259-.693.639-1.732.846-2.306.207-.57.549-1.508.76-2.083.211-.574.511-1.39.663-1.82l.435-1.196c.397-1.068 1.14-3.092 1.495-4.08.216-.596.626-1.715.909-2.484.283-.768.667-1.82.857-2.34l.338-.942H47.13c19.008 0 24.077-.012 24.077-.055 0-.03.047-.186.106-.342.059-.16.38-1.06.714-1.998a230.648 230.648 0 01.887-2.496l.105-.3H18.344l-.22.655a664.243 664.243 0 01-1.474 4.312c-.295.87-.684 2.007-.861 2.53l-.507 1.487c-.102.292-.245.702-.313.909l-1.157 3.37c-.296.866-.697 2.032-.887 2.594-.668 1.972-.803 2.353-.837 2.386-.017.017-.088-.16-.156-.401-.152-.532-.308-1.073-.82-2.784-.215-.73-.477-1.617-.578-1.972a38.516 38.516 0 00-.27-.908l-.288-.976a83.98 83.98 0 00-.295-1.001 13.186 13.186 0 01-.17-.575c-.046-.16-.139-.49-.215-.73l-.287-.976c-.084-.296-.389-1.322-.672-2.285-.287-.963-.57-1.918-.629-2.125a643.333 643.333 0 00-1.069-3.607c-.02-.072-.21-.08-3.231-.08-2.547 0-3.202.012-3.19.059z"/><path d="M63.997 29.514c-1.52.152-2.53.406-3.485.883-.562.279-.752.397-1.191.73a5.553 5.553 0 00-1.926 2.746c-.212.672-.27 1.103-.266 2.024.004.764.012.882.122 1.284.338 1.271 1.124 2.217 2.446 2.927.866.469 1.634.735 4.477 1.554 1.72.494 2.678.862 3.05 1.175.27.223.363.447.363.865 0 .296-.02.402-.127.63-.21.469-.646.79-1.296.971-.364.097-1.217.131-1.711.064-1.44-.199-2.082-.866-2.23-2.32l-.03-.3H56.34l.03.39c.139 1.87.654 3.083 1.794 4.223a6.4 6.4 0 001.88 1.33c1.47.698 3.4 1.078 5.132 1.002 1.483-.063 2.581-.25 3.717-.63 1.23-.41 2.117-.929 2.873-1.676.861-.862 1.373-1.859 1.596-3.11.093-.527.106-1.794.021-2.238-.38-2.019-1.647-3.307-4.126-4.194-.647-.233-1.487-.47-2.974-.84a36.297 36.297 0 01-1.774-.474c-1.516-.49-2.116-1.149-1.757-1.922.24-.52.942-.82 1.922-.82.882 0 1.541.233 2.027.723.321.321.427.562.427.993v.278h2.77c2.615 0 2.772-.004 2.772-.076 0-.333-.157-1.28-.288-1.731-.291-1.023-.743-1.791-1.448-2.472-1.073-1.034-2.552-1.664-4.474-1.904-.536-.068-2.099-.123-2.462-.085zm-39.803.503c0 .025-.371 1.068-.828 2.319l-1.19 3.294c-.204.562-.465 1.28-.575 1.597-.114.317-.237.646-.27.73-.034.085-.203.546-.372 1.019-.174.477-.718 1.993-1.217 3.37a1705.87 1705.87 0 01-1.381 3.815l-.782 2.154c-.169.465-.304.862-.304.879 0 .017 1.323.03 2.94.03h2.94l.047-.19c.071-.288.73-2.396.777-2.485.038-.071.224-.076 3.007-.076 2.04 0 2.974.013 2.995.047.017.025.085.249.152.498.072.25.237.837.376 1.305.135.47.25.862.25.875 0 .013 1.364.025 3.036.025 1.669 0 3.037-.008 3.037-.021 0-.013-.118-.346-.261-.743-.144-.397-.427-1.179-.626-1.74-.798-2.223-1.178-3.295-1.617-4.525-.254-.71-.537-1.508-.638-1.774l-.54-1.508a994.965 994.965 0 00-1.412-3.949l-.671-1.884c-.25-.697-.499-1.394-.558-1.554-.055-.157-.194-.537-.3-.84-.11-.305-.211-.592-.228-.634-.03-.072-.211-.076-2.91-.076-1.842 0-2.877.016-2.877.042zm3.13 7.126l.46 1.613c.144.499.402 1.407.575 2.02.173.607.346 1.207.38 1.325a.893.893 0 01.047.237 68.79 68.79 0 01-1.766 0l-1.757-.013.198-.642c.174-.566.482-1.554.904-2.927.452-1.453.71-2.306.71-2.331 0-.106.068.088.25.718zm10.484 12.08h5.546v-5.242c0-3.18.013-5.225.038-5.2.021.022.25.423.503.883.253.465.836 1.52 1.297 2.353l1.208 2.192c.21.38.43.782.49.887.215.393.853 1.55 1.554 2.818l.71 1.288 2.864.009 2.868.012V29.975H49.34v5.153c0 2.919-.017 5.136-.038 5.11a12.959 12.959 0 01-.414-.751l-1.221-2.285c-.465-.866-1.238-2.31-1.72-3.215-.48-.9-.933-1.74-.996-1.863a73.34 73.34 0 01-.794-1.486l-.313-.575c-.03-.059-.422-.067-3.037-.076l-2.999-.012v19.248z"/></g><defs><clipPath id="clip0_365_53828"><path fill="#fff" transform="translate(.219)" d="M0 0h73.22v73.22H0z"/></clipPath></defs></svg>