<svg xmlns="http://www.w3.org/2000/svg" width="74" height="74" fill="none"><g clip-path="url(#clip0_365_53830)" fill="#000"><path d="M10.901 24.503c-1.176.183-2.004.45-3.021.976-2.247 1.153-4.14 3.246-5.493 6.066a20.757 20.757 0 00-1.72 5.624c-.202 1.3-.226 1.626-.226 3.003 0 1.343.03 1.691.243 2.945.213 1.248.745 2.596 1.425 3.607 1.413 2.099 3.624 3.116 6.534 2.998 2.595-.107 4.742-1.112 6.699-3.128a13.944 13.944 0 002.087-2.762c.603-1.034.846-1.572 1.514-3.376.402-1.076.733-2.572.993-4.5.095-.68.095-3.258 0-3.884-.2-1.402-.396-2.182-.774-3.122-.78-1.958-2.064-3.288-3.867-4.01-1.213-.484-2.975-.662-4.394-.437zm.988 6.268c.248.106.615.45.745.703.609 1.183.62 3.513.041 6.463-.68 3.436-1.845 5.428-3.264 5.576-.97.1-1.59-.455-1.921-1.72-.142-.539-.196-2.224-.1-3.093.07-.656.094-.816.283-1.904.698-3.95 1.963-6.114 3.577-6.114.23 0 .515.042.639.089zm11.341-5.759a1.88 1.88 0 00-.065.378c0 .077-.024.26-.06.402-.029.142-.1.568-.153.946-.053.373-.13.84-.16 1.04-.065.362-.124.734-.248 1.473-.035.225-.195 1.189-.343 2.14-.36 2.242-.39 2.443-.426 2.703-.017.118-.07.455-.124.745-.047.29-.136.822-.19 1.177-.052.36-.123.81-.159.993-.03.19-.112.692-.183 1.117-.118.77-.444 2.785-.562 3.513-.035.2-.1.65-.153.993l-.154.958c-.06.32-.148.905-.32 2.022-.035.237-.088.562-.118.71-.177.904-.45 2.797-.414 2.885.036.089.485.1 4.884.1 4.63 0 5.523-.029 6.398-.194a10.37 10.37 0 002.608-.917c2.14-1.13 3.684-3.282 4.127-5.735.154-.858.106-2.383-.089-2.969-.479-1.401-1.555-2.288-3.17-2.601l-.52-.1.462-.084c1.78-.319 3.234-1.407 4.026-3.015.509-1.047.686-1.84.686-3.116 0-.864-.053-1.242-.26-1.851-.207-.615-.337-.863-.721-1.372-.905-1.224-2.4-2.004-4.636-2.43-.408-.077-1.336-.1-5.197-.124l-4.701-.03-.065.243zm7.521 5.262c.39.118.538.195.787.426.366.349.49.922.348 1.614-.195.917-.626 1.372-1.738 1.845-.1.041-.497.089-.875.106l-.698.03.053-.272c.065-.349.16-.928.278-1.685a179.3 179.3 0 01.32-1.987l.035-.171.597.005c.343 0 .727.036.893.09zm-1.614 9.165c1.106.237 1.655.917 1.59 1.975-.076 1.218-.857 2.129-2.105 2.46-.189.053-.62.088-.975.088h-.645l.036-.165c.1-.55.567-3.376.627-3.832.082-.59.088-.597.65-.597.272 0 .644.036.822.071zm12.671-14.581c-.035.041-.112.414-.165.822-.06.414-.136.875-.166 1.023-.03.153-.083.479-.118.715-.041.243-.207 1.301-.379 2.36-.171 1.058-.348 2.193-.402 2.512-.053.326-.118.745-.153.935-.036.189-.1.62-.154.963a75.679 75.679 0 01-.284 1.768c-.03.19-.13.805-.213 1.366-.089.562-.189 1.183-.219 1.384-.035.195-.088.514-.124.71-.035.2-.1.626-.153.946-.154 1.01-.403 2.56-.468 2.92-.03.19-.1.621-.153.964-.083.58-.444 2.839-.592 3.755a16.16 16.16 0 01-.136.757c-.035.195-.047.396-.03.45.036.088.693.094 6.233.094 3.406 0 6.232-.018 6.274-.047.041-.024.1-.243.136-.48.106-.697.242-1.584.307-1.986.071-.414.26-1.662.408-2.602.047-.337.077-.638.06-.662-.019-.03-1.32-.06-2.892-.06h-2.862l.035-.13c.018-.07.148-.845.29-1.72s.278-1.632.308-1.685c.041-.077.42-.1 2.62-.124l2.565-.03.018-.16c.006-.082.041-.307.077-.496.19-1.023.81-4.866.81-4.997v-.153h-2.578c-1.42 0-2.578-.024-2.578-.048 0-.153.508-3.104.55-3.18.047-.084.461-.095 2.933-.125l2.88-.03.017-.16c.03-.224.402-2.642.514-3.316.03-.172.095-.621.154-.994.053-.378.124-.798.148-.934a1.21 1.21 0 00.024-.325c-.042-.113-12.453-.113-12.542 0zm13.121-.024c-.024.03 0 .178.047.325.048.154.119.402.166.55a81.437 81.437 0 01.402 1.461c.118.443.26.946.308 1.117.047.172.23.816.402 1.431.171.615.337 1.212.372 1.33.071.243.438 1.568.585 2.112.054.189.278.999.503 1.803.532 1.886.497 1.744.674 2.389.379 1.39.414 1.555.379 1.768-.018.124-.06.372-.09.562-.035.189-.13.786-.218 1.336-.083.544-.177 1.13-.213 1.3-.284 1.52-1.13 6.878-1.1 6.954.036.095.326.1 3.377.06 1.839-.024 3.346-.054 3.358-.06.012-.011.077-.349.142-.756.065-.403.148-.87.178-1.041.065-.331.538-3.164.792-4.719.236-1.484.248-1.56.443-2.702l.184-1.088.833-1.46c.462-.799 1.29-2.253 1.845-3.229.556-.97 1.1-1.922 1.212-2.11.113-.184.663-1.148 1.23-2.141.568-.988 1.46-2.555 1.993-3.471.526-.922.946-1.697.928-1.727-.012-.023-1.59-.047-3.506-.047h-3.477l-.467.976c-.26.538-.538 1.135-.627 1.318-.083.19-.402.858-.704 1.484a39.03 39.03 0 00-.55 1.16c0 .011-.165.366-.366.786-.201.42-.467.987-.597 1.253-.124.272-.248.467-.278.438-.024-.036-.095-.408-.16-.834-.059-.426-.13-.928-.154-1.117-.03-.19-.082-.539-.112-.775a239.5 239.5 0 00-.508-3.477c-.03-.171-.071-.467-.095-.656a4.897 4.897 0 00-.07-.45c-.03-.1-.25-.106-3.53-.106-1.934 0-3.513.024-3.531.053zm14.327 19.814a2.368 2.368 0 00-1.868 2.1c-.13 1.572 1.277 2.755 2.932 2.465.408-.077 1-.402 1.295-.71.249-.271.326-.401.527-.892.041-.095.07-.402.07-.686 0-.822-.26-1.372-.857-1.815-.526-.379-1.484-.592-2.099-.462zm1.39.663c1.241.585 1.241 2.655 0 3.275-.385.196-1.011.22-1.425.06-.337-.13-.74-.515-.929-.882-.207-.396-.207-1.283-.006-1.661.485-.928 1.42-1.236 2.36-.792z"/><path d="M68.89 45.713c-.018.047-.024.632-.018 1.295l.017 1.212.296.018.29.017.018-.514c.017-.455.035-.514.136-.514.082 0 .195.147.396.508l.272.514h.313c.36 0 .36.018-.006-.59-.142-.231-.254-.438-.254-.468 0-.03.07-.077.154-.095.242-.059.408-.313.408-.62 0-.615-.249-.775-1.29-.822-.567-.024-.703-.012-.733.059zm1.277.49c.142.077.16.32.035.426-.053.042-.23.065-.42.053-.354-.017-.414-.082-.337-.396.036-.13.071-.148.32-.148.153 0 .337.03.402.066z"/></g><defs><clipPath id="clip0_365_53830"><path fill="#fff" transform="translate(.441)" d="M0 0h73.22v73.22H0z"/></clipPath></defs></svg>