<svg xmlns="http://www.w3.org/2000/svg" width="74" height="74" fill="none"><g clip-path="url(#clip0_365_53832)" fill="#000"><path d="M25.997 3.737c-.62.23-1.283.883-1.708 1.684-.172.336-.196.5-.188 1.243.008.474.024 1.635.033 2.575.032 1.979-.14 3.63-.646 6.394-.344 1.847-.63 3.319-.695 3.532-.05.155-.156.163-6.434.376a208.7 208.7 0 00-5.462.261c-2.534.196-2.91.106-4.194-1.03-.842-.736-1.226-.924-1.93-.916-.874 0-1.405.352-1.765 1.161-.532 1.21-.106 2.96.9 3.638.923.622 1.871.646 4.128.082 2.052-.515 2.346-.556 6.115-.711 2.886-.123 7.93-.14 8.037-.033.049.05-.205 1.554-.556 3.344-.147.736-.687 3.05-1.21 5.15-.523 2.102-1.128 4.71-1.35 5.797l-.392 1.97-1.373.066c-.76.032-2.42.122-3.695.196-1.276.074-3.09.155-4.031.18l-1.717.049.474-.286c.67-.393 1.62-.785 3.344-1.374 2.412-.817 2.6-.85 4.358-.834 1.283.017 1.578 0 1.864-.13 1.07-.467 1.602-1.873 1.087-2.862-.351-.687-1.087-.85-2.51-.54-.482.099-1.25.32-1.7.491-.458.163-1.537.54-2.412.842-3.025 1.03-5.371 1.962-7.146 2.82-1.144.565-3.646 1.963-4.104 2.298-.343.262-.474.621-.457 1.324.024 1.153.343 1.415 1.765 1.407.483 0 1.48-.074 2.216-.164 2.698-.351 5.968-.597 11.356-.867 1.079-.057 1.978-.081 1.995-.065.016.017-.082.572-.221 1.227-.613 2.91-1.161 5.011-1.799 6.908-1.136 3.376-1.136 4.537-.024 5.24.564.36.973.458 1.872.458 1.259-.008 2.077-.433 3.025-1.578 1.005-1.202 1.488-1.7 1.88-1.962.613-.409.663-.384.613.4-.032.581-.098.794-.53 1.718-.761 1.643-.753 2.575.032 3.196 1.381 1.096 3.23.785 3.646-.613.164-.564.164-1.782 0-3.376-.196-1.938-.139-2.895.204-3.516.172-.294 2.249-1.978 2.6-2.101.286-.098.254-.278.245 1.627-.008 1.169.009 1.267.189 1.545.327.482.678.613 1.537.572.596-.032.842-.09 1.3-.31.498-.237.588-.32.784-.712.295-.588.295-1.25 0-2.706-.278-1.39-.261-2.166.058-2.632.114-.18.613-.621 1.111-.99 1.055-.793 1.398-1.136 1.587-1.57.228-.547.171-.997-.221-1.773-.32-.638-.352-.752-.31-1.137.056-.45.334-.932.539-.94.302 0 .703 1.055.932 2.453.204 1.25.564 6.54.564 8.24 0 1.595-.074 2.184-.393 3.28-.278.964-.278 1.716-.008 2.305.81 1.733 3.565 1.618 4.407-.172.4-.867.237-1.668-.572-2.755-.785-1.047-.85-1.235-1.21-3.434-.475-2.861-1.03-7.44-.924-7.554.073-.074 1.798-.22 3.123-.27.907-.033 1.807-.016 2.387.05.957.105 2.338.457 2.526.637.14.139-.335 1.079-1.398 2.763-1.25 1.987-1.676 3.123-1.668 4.464 0 .891.188 1.537.556 1.905.262.262.327.286.834.286.32 0 .752-.074 1.022-.163 1.276-.442 5.208-2.617 6.696-3.712.801-.597 1.782-1.66 2.126-2.306.245-.457.302-.678.335-1.218.032-.556.008-.727-.147-1.046-.344-.703-1.096-1.243-2.396-1.733-.417-.148-.915-.36-1.12-.466-.36-.18-.752-.67-.63-.794.033-.032.352-.106.704-.163 1.398-.22 3.654.114 5.363.793.474.188.907.368.965.4.212.131-.156 1.309-1.415 4.612-.637 1.667-.858 2.411-1.014 3.482-.36 2.445.328 3.786 1.922 3.777 1.202 0 2.42-.719 4.472-2.624.72-.67 1.316-1.07 1.619-1.07.188-.009.122.931-.148 2.043-.31 1.25-.327 1.635-.073 2.142.139.302.27.417.621.58.883.417 2.24.156 2.919-.555.392-.41.409-1.08.049-2.47-.376-1.48-.344-1.88.302-3.589.565-1.496 1.137-3.531 1.554-5.526.155-.777.327-1.553.376-1.717.114-.425.433-.957.654-1.104l.188-.122.065 1.79c.082 2.248-.008 8.34-.18 12.64-.139 3.531-.196 8.028-.13 10.006l.049 1.202-.376 1.055c-.295.85-.376 1.218-.417 1.847-.05.875.106 1.701.4 2.118.425.597 1.79.81 2.755.433.646-.253 1.006-.621 1.17-1.202.245-.834.098-1.586-.785-4.022-.221-.605-.221-.67-.205-2.404.041-2.804.033-3.335-.049-12.68-.073-8.821 0-14.152.22-16.44.075-.777.14-1.006.459-1.718.441-.964.523-1.25.646-2.272.171-1.423-.123-2.412-.818-2.74-.499-.236-1.382-.155-2.117.197-1.308.621-1.848 1.93-1.35 3.27.475 1.3.467 1.243.32 1.831-.074.295-.27 1.006-.442 1.595a49.8 49.8 0 00-.654 2.575c-.458 1.978-1.022 3.67-1.504 4.497-.213.36-.434.686-.49.719-.148.09-.63-.507-.794-.981-.204-.597-.417-2.976-.376-4.26.033-1.005.065-1.201.319-1.896.515-1.423.458-3.107-.14-3.663-.416-.392-.882-.589-1.413-.589-.59 0-.81.082-1.112.385-.376.376-.524.915-.556 2.044-.025.899-.05 1.03-.245 1.316-.123.172-.638 1.169-1.153 2.215-.548 1.096-1.104 2.11-1.333 2.388l-.392.49-.344-.122c-.498-.172-2.1-.507-3.948-.81-.875-.147-1.668-.278-1.775-.302-.171-.041-.13-.123.49-1.186 1.342-2.273 1.726-2.69 3.01-3.246 1.054-.441 1.438-.776 1.774-1.512.678-1.463.515-2.706-.41-3.188-.334-.172-.482-.188-1.07-.164-1.218.066-1.921.556-2.616 1.848a50.551 50.551 0 01-1.153 1.93 273.378 273.378 0 00-2.837 4.7c-1.022 1.766-1.422 2.38-1.782 2.714-.474.442-.605.458-1.75.213a40.4 40.4 0 00-1.692-.31c-.507-.083-.916-.18-.916-.213 0-.14.965-.949 1.578-1.333a9.41 9.41 0 011.52-.695c.491-.172 1.088-.4 1.325-.515.99-.466 2.134-2.093 2.134-3.041 0-.834-.736-1.357-1.782-1.26-.614.058-1.472.352-2.069.696-.474.278-.883.81-1.014 1.324-.09.327-.163.393-.645.662-.303.164-1.186.785-1.954 1.374-1.954 1.48-3.082 2.011-4.227 2.011-.343 0-.466-.033-.507-.139-.033-.082-.016-1.635.033-3.458.106-3.72.106-3.745.793-5.224.507-1.104.695-1.717.686-2.24-.024-1.096-.637-1.66-1.839-1.668-.858-.008-1.382.163-1.807.58-.531.532-.58.818-.515 2.747.057 1.553.057 1.66-.122 2.15-.5 1.366-.826 2.404-1.39 4.382a136.483 136.483 0 01-1.022 3.434l-.409 1.284-.458-.025c-.253-.016-.523-.065-.597-.106-.36-.196-.507-2.87-.343-6.18.123-2.462.172-2.756.531-3.353.483-.776.654-2.052.377-2.837-.385-1.07-1.546-1.406-2.682-.752-.736.417-.834.695-.834 2.306-.008 1.324-.008 1.34-.31 2.109-.172.425-.45 1.234-.622 1.799-.352 1.169-1.17 4.561-1.398 5.82l-.147.835h-.613c-.327 0-.646-.033-.695-.066-.27-.18-.434-10.04-.221-12.9.098-1.317.352-3.533.409-3.59.016-.016 2.55.049 5.633.147 13.677.45 16.784.548 19.768.605l3.172.066.908.376c.76.319.989.376 1.496.376.695 0 1.194-.188 1.709-.638.506-.45.694-.875.694-1.635 0-.818-.302-1.537-.89-2.085-.5-.466-.908-.613-1.685-.605-.703.008-1.112.172-2.035.793-.344.23-.802.507-1.006.622l-.392.204-8.757.024c-8.83.033-11.797-.024-14.806-.286-1.618-.139-3.523-.36-3.58-.409-.05-.049.204-2.51.45-4.284.114-.866.27-2.092.334-2.73.148-1.292.189-1.455.81-2.78.515-1.095.662-1.545.744-2.289.082-.785-.074-1.561-.45-2.305-.482-.957-1.136-1.341-1.848-1.088zM22.768 33.62c.033.229.107 1.169.155 2.093.05.932.107 1.872.131 2.093l.041.409h-.94c-.523 0-.94-.033-.94-.074 0-.229.801-4.014.948-4.489.164-.523.196-.572.368-.506.14.049.196.163.237.474zm40.837 1.995c.09.507.262 2.264.27 2.714 0 .229-.442.13-1.913-.45-.23-.09-.237-.098-.115-.335.066-.13.417-.654.777-1.169.36-.515.678-1.022.703-1.136.09-.344.172-.221.278.376zm-34.002 1.103c.065.18.098.597.09.932l-.025.605-.964.05.073-.41c.033-.228.09-.596.123-.825.049-.417.302-.785.49-.72.058.017.156.18.213.368zm32.473 3.827c.205.049.736.204 1.178.343l.792.261v.524c0 .294-.04.989-.081 1.545l-.082 1.014-.948 1.005c-1.186 1.243-1.766 1.733-2.461 2.077-.523.253-1.725.572-1.815.474-.025-.024-.041-.441-.033-.924.033-1.864.58-3.744 1.7-5.804l.393-.72.482.057c.27.033.663.098.875.148zm-32.424 1.52c.033.736.057 1.553.057 1.815v.474l-.474.246c-.253.13-.768.45-1.128.703-.368.253-.67.45-.679.441-.057-.057.687-4.889.777-5.044.016-.017.335-.025.711-.008l.679.024.057 1.35zm-6.581-.392c-.033.531-.058 2.24-.058 3.801v2.83l-.834.596c-1.12.793-1.978 1.16-2.853 1.226l-.67.041.196-1.104c.515-2.918 1.423-7.39 1.635-8.118.05-.163.335-.196 1.832-.229l.809-.016-.057.973zm27.502.016c.352.18.94.515 1.3.752.744.474.744.49.229.981-.597.564-1.52 1.186-2.395 1.61-.867.434-2.6.99-2.706.884-.099-.098.58-2.069.997-2.902.229-.458.613-1.063.85-1.35l.434-.523.327.115c.18.065.613.261.964.433z"/><path d="M31.663 12.976c-.384.114-.736.416-.99.842-.203.351-.236.49-.236 1.128 0 .613.04.81.229 1.226.335.712.613 1.038 1.12 1.308.866.474 1.807.246 2.362-.588.385-.564.475-.99.442-1.905-.033-.67-.074-.834-.303-1.243-.4-.72-.662-.858-1.61-.85-.425.008-.883.04-1.014.082zm5.47 1.618c-.425.205-.85.638-1.022 1.063-.458 1.096.441 2.543 1.586 2.55.654.01 1.21-.236 1.717-.751.98-1.006.866-2.232-.27-2.796-.572-.286-1.472-.31-2.011-.066z"/></g><defs><clipPath id="clip0_365_53832"><path fill="#fff" transform="translate(.66)" d="M0 0h73.22v73.22H0z"/></clipPath></defs></svg>