<svg xmlns="http://www.w3.org/2000/svg" width="75" height="74" fill="none"><g clip-path="url(#clip0_365_53834)"><path d="M.883 35.953v16.522h73.22V19.432H.883v16.521zm9.315-10.062c.063.063.072.487.072 3.943V33.7h7.041v-3.867c0-3.455.008-3.88.071-3.942.067-.067.317-.076 2.065-.076 1.744 0 1.998.009 2.06.071.068.067.077 1.042.077 10.014-.005 7.666-.014 9.95-.058 9.995-.08.08-4.077.08-4.157 0-.045-.045-.058-1.01-.058-4.06V37.83H10.27v3.988c0 3.558-.009 3.992-.072 4.059-.066.062-.321.076-2.083.076-1.497-.005-2.016-.018-2.06-.058C6.01 45.85 5.997 43.56 6 35.877c0-9.44 0-9.968.08-10.013.054-.027.805-.045 2.061-.05 1.74 0 1.99.01 2.056.077zm24.828 0c.066.063.075.778.075 7.143 0 4.251.018 7.228.045 7.47.063.554.166.827.393 1.055.228.228.492.362.921.482.273.076.532.085 2.325.085 2.146 0 2.324-.018 2.82-.237.501-.219.76-.58.859-1.198.035-.2.049-2.722.049-7.487 0-6.424.009-7.192.076-7.286l.071-.103h2.003c1.793 0 2.007.009 2.083.076.085.076.085.353.085 6.982 0 4.077-.018 7.206-.045 7.64-.2 3.142-1.265 4.657-3.688 5.27-1.028.26-1.408.286-4.29.286-2.933 0-3.25-.022-4.35-.309-2.24-.576-3.308-2.002-3.58-4.778-.032-.309-.05-3.147-.05-7.778 0-6.893.005-7.295.08-7.34.054-.027.805-.045 2.066-.05 1.739 0 1.989.01 2.052.077zm33.905-.018c.08.08.08 3.889 0 3.97-.044.044-1.068.053-4.318.053h-4.26V33.7h3.21c2.856 0 3.218.01 3.285.076.063.063.076.309.076 1.99 0 1.68-.013 1.926-.076 1.989-.067.067-.429.075-3.285.075h-3.21v3.957c0 3.504-.009 3.965-.076 4.058l-.071.103-2.003.005c-1.793 0-2.007-.01-2.083-.08-.085-.077-.085-.448-.085-9.982 0-9.15.005-9.91.076-9.991.076-.08.335-.085 6.419-.085 4.873 0 6.356.013 6.401.058z" fill="#000"/></g><defs><clipPath id="clip0_365_53834"><path fill="#fff" transform="translate(.883)" d="M0 0h73.22v73.22H0z"/></clipPath></defs></svg>