<svg width="74" height="74" fill="none" xmlns="http://www.w3.org/2000/svg"><path d="M46.585 4.913c-5.378.37-10.317 2.363-14.555 5.87-.8.663-2.665 2.543-3.342 3.371-3.366 4.121-5.314 8.856-5.88 14.288-.102.993-.082 4.272.03 5.241.4 3.43 1.217 6.216 2.674 9.129a25.887 25.887 0 0010.123 10.79 25.186 25.186 0 008.32 3.02c2.07.35 1.286.331 12.792.346l10.42.02V39.48c0-10.035-.02-17.483-.044-17.454-.025.024-.088.176-.137.327-.049.155-.19.506-.312.784-1.08 2.46-3.239 4.433-5.738 5.251-.974.322-1.661.429-2.718.434-1.203 0-2.129-.17-3.2-.59-3.63-1.417-5.905-5.163-5.646-9.294.2-3.137 1.953-6.172 4.37-7.546 1.914-1.086 4.12-1.325 6.424-.692l.43.117-.493.064c-.94.117-1.642.375-2.382.862-1.281.857-2.192 2.25-2.552 3.912-.137.608-.137 1.997-.005 2.606.565 2.582 2.391 4.418 4.74 4.764.862.122 1.967-.04 2.79-.414.77-.346 1.623-1.053 2.198-1.817.511-.682.93-1.686 1.135-2.709.112-.58.126-2.499.024-3.098-.414-2.338-1.53-4.257-3.41-5.87-2.567-2.197-6.425-3.624-11.15-4.13-.906-.093-3.912-.142-4.906-.074zM31.26 68.85h1.588v-7.57H31.26v7.57zm25.969-7.176c-.02.014-.034.292-.034.614v.574h-1.33v1.486h1.33v4.501h1.637v-4.5h2.197v-1.487h-2.197v-1.227h-.785c-.433 0-.803.02-.818.039zm6.187-.005c-.02.02-.034.297-.034.619v.574h-1.38v1.486h1.38v4.501h1.636v-4.5h2.202v-1.487h-2.197l-.03-1.198-.769-.015c-.424-.01-.789 0-.808.02zm-29.126 1.15c-.497.063-.847.18-.925.306-.156.254-.122.945.058 1.194.068.092.083.092.448-.034.77-.263 1.588-.288 2.134-.064.268.112.599.453.74.76.102.234.117.337.112.95-.005.57-.029.78-.136 1.18-.102.394-.36 1.124-.575 1.65-.034.083.015.088.823.078l.858-.014.175-.487c.263-.75.463-1.593.526-2.27.127-1.33-.204-2.139-1.12-2.733-.726-.468-1.94-.672-3.118-.517zm-7.867.068c-.2.039-.414.097-.477.131-.24.127-.327.643-.195 1.096.092.307.175.327.555.156.302-.141.37-.15.916-.15.54 0 .609.009.886.145.478.234.673.61.74 1.432.03.37.045.42.162.483.18.097.993.053 1.222-.064l.17-.087-.019-.75c-.02-.721-.029-.765-.185-1.097-.453-.969-1.266-1.373-2.723-1.364-.38.005-.852.035-1.052.069zm24.907 0c-.2.039-.414.097-.477.131-.234.127-.327.643-.19 1.096.092.307.175.327.555.156.297-.141.37-.15.91-.15.546 0 .61.009.887.145.478.234.663.585.736 1.413.034.39.053.438.17.502.18.097.99.053 1.218-.064l.176-.087-.025-.75c-.02-.717-.029-.77-.18-1.097-.453-.964-1.267-1.373-2.723-1.364a9.02 9.02 0 00-1.057.069zm-42.653.058c-.541.112-1.218.468-1.574.823-.599.6-.857 1.199-.896 2.095-.049 1.213.36 2.124 1.237 2.738l.356.248h5.714v-1.023h-2.24c-2.09 0-2.251-.01-2.451-.102-.302-.132-.663-.512-.828-.858-.117-.258-.137-.355-.137-.803 0-.458.015-.546.147-.809.165-.336.501-.692.784-.833.18-.092.355-.097 2.46-.112l2.265-.014v-1.433l-2.24.005c-1.735.005-2.32.025-2.597.078zm6.523 1.349l2.62.005c1.632 0 2.694.02 2.81.05.103.028.25.126.322.209l.132.155v3.113h-2.343c-2.187 0-2.353-.01-2.553-.097-.472-.215-.501-.833-.048-1.048.15-.073.438-.082 2.304-.082h2.129v-1.384h-2.246c-1.91 0-2.28.015-2.519.083-.687.205-1.164.6-1.442 1.184-.146.307-.165.4-.165.784 0 .39.02.472.17.774.107.22.258.424.424.575l.263.234h7.663l-.015-2.163c-.014-2.129-.014-2.163-.131-2.455-.17-.414-.643-.91-1.053-1.106-.53-.253-.662-.263-3.59-.263H15.2v1.432zm8.49 4.556h1.588v-5.988H23.69v5.987zm16.421-4.556l2.621.005c1.574 0 2.694.02 2.801.05a.772.772 0 01.307.184l.127.132.029 3.161h-2.343c-2.192 0-2.358-.01-2.558-.097-.472-.215-.497-.833-.048-1.048.155-.073.443-.082 2.304-.082h2.129v-1.384h-2.241c-2.426 0-2.485.01-3.045.292-.58.293-1.042.984-1.096 1.623-.044.58.195 1.135.663 1.534l.214.185h7.653v-2.036c0-2.207-.02-2.397-.288-2.85-.175-.302-.623-.706-.955-.857-.487-.23-.657-.244-3.54-.244H40.11v1.432zm8.491 4.556h1.583v-5.988h-1.583v5.987zm17.658-.99c-.194.04-.462.332-.501.541-.049.253.005.448.117.448.073 0 .087-.039.073-.253-.02-.23-.005-.273.136-.41.214-.214.502-.219.736-.004.15.131.165.175.16.409 0 .214.015.258.078.248.059-.01.088-.087.098-.248.029-.482-.405-.833-.897-.73z" fill="#000"/><path d="M66.178 68.167c-.02.02-.034.18-.034.356 0 .292.01.326.102.326.068 0 .102-.034.102-.102 0-.059.02-.102.04-.102.019 0 .067.043.101.102.034.058.098.102.142.102.087 0 .102-.083.02-.131-.035-.02-.016-.069.053-.132.224-.21.078-.453-.273-.453-.122 0-.234.015-.253.034zm.438.151c.063.064-.03.175-.146.175-.088-.004-.122-.029-.122-.107 0-.073.034-.102.122-.102.063 0 .131.015.146.034z" fill="#000"/></svg>