<svg xmlns="http://www.w3.org/2000/svg" width="74" height="74" fill="none"><g clip-path="url(#clip0_365_53838)" fill="#000"><path d="M.32 18.361c0 .031.168.848.371 1.82.512 2.423.636 2.997.738 3.483a6217.312 6217.312 0 002.313 10.94c.181.84.61 2.875.958 4.518 2.278 10.786 2.61 12.34 2.636 12.367.018.017.34-.128.715-.322 5.149-2.663 11.056-3.71 17.233-3.047 3.855.41 8.102 1.594 11.246 3.122l.441.216.367-.168a44.01 44.01 0 012.945-1.161 37.004 37.004 0 019.06-1.996c1.258-.115 4.185-.119 5.448 0 2.804.256 5.404.861 7.86 1.824.873.34 2.485 1.143 3.072 1.523.26.172.481.305.49.296.01-.01.07-.27.137-.574.327-1.515.91-4.155 1.678-7.652.441-2.004.755-3.448 1.572-7.175.168-.755.441-2 .609-2.755.163-.76.389-1.766.49-2.238a4449.658 4449.658 0 002.291-10.455c.19-.866.398-1.793.46-2.062.062-.265.101-.5.088-.521-.04-.062-73.218-.045-73.218.017zm53.407 10.08l-.72.87-.72.866h-.278c-.154 0-.278-.018-.278-.04 0-.018.137-.429.3-.905.168-.477.305-.879.305-.888 0-.009-.287-.026-.64-.03l-.636-.014-.026-2.481h2.693v2.622zm-26.019-.962c1.267.278 2.208.76 2.98 1.532.371.37.782.936 1.007 1.373.406.812.693 2.331.592 3.144l-.031.264-3.93.014-3.925.009.009.269c.04 1.095.689 1.934 1.678 2.168.344.08 1.232.03 1.642-.084.578-.168 1.033-.583 1.13-1.042l.027-.128h3.426l-.03.199c-.063.366-.261.936-.478 1.35-.247.473-.786 1.082-1.214 1.37-.605.41-1.435.724-2.344.887-.702.123-2.274.172-3.042.093-1.616-.168-2.83-.676-3.762-1.577-.861-.83-1.347-1.863-1.515-3.223-.075-.574-.035-1.907.071-2.393.534-2.468 2.208-3.93 4.936-4.31.168-.021.76-.03 1.32-.021.804.009 1.113.035 1.453.106zm33.37.013c.87.146 1.727.494 2.327.95.676.503 1.157 1.337 1.183 2.04l.01.229-1.56.013-1.558.009-.053-.186c-.115-.384-.512-.675-1.1-.817-.401-.092-1.227-.066-1.571.053-.782.27-.888.884-.212 1.228.283.141.645.23 1.766.42 1.722.29 2.3.45 3.033.825.323.163.508.3.795.583.587.583.813 1.166.813 2.11 0 2.133-1.453 3.413-4.296 3.78-.738.097-2.288.097-2.963.004-1.347-.19-2.358-.649-2.994-1.36-.446-.499-.786-1.386-.786-2.048v-.234h3.418l.053.269c.101.52.454.892 1.002 1.055.547.163 1.382.124 1.762-.088.472-.265.556-.861.159-1.152-.195-.142-.738-.305-1.466-.433-2.376-.42-3.272-.742-3.974-1.43a2.579 2.579 0 01-.733-1.188c-.154-.504-.154-1.444 0-1.948.278-.891.932-1.62 1.886-2.097 1.245-.627 3.382-.874 5.06-.587zm-25.06.38c.079.159.732 1.58 1.452 3.161.724 1.58 1.338 2.874 1.369 2.874.035 0 .327-.582.649-1.298 1.934-4.238 2.247-4.918 2.287-4.971.035-.045.437-.058 1.713-.058 1.417 0 1.665.01 1.651.067-.009.035-1.178 2.516-2.605 5.514l-2.591 5.453h-3.378l-.662-1.355c-.362-.747-1.232-2.513-1.925-3.93-2.292-4.658-2.782-5.67-2.782-5.709 0-.022 1.05-.04 2.34-.04h2.34l.142.292zm13.907 10.693h-4.128V27.58h4.128v10.985zm-36.487-2.781h6.212v2.781H9.314V33.22c-.004-2.941.009-5.383.027-5.422.026-.071.225-.08 2.062-.08h2.035v8.067z"/><path d="M25.814 29.708c-.27.053-.587.23-.746.411-.287.331-.504.958-.504 1.475v.251h3.109v-.269c0-.313-.137-.892-.274-1.152-.274-.53-.971-.844-1.585-.716zM62.39 51.012c-.345.128-.548.26-.773.512-.618.671-.614 1.7.004 2.415.195.225.596.446.994.548.265.066.313.066.578 0 .645-.164 1.042-.482 1.303-1.033.128-.274.141-.35.141-.724 0-.274-.03-.486-.08-.627-.194-.513-.64-.945-1.12-1.091-.275-.08-.822-.08-1.047 0zm1.148.375c.313.155.635.512.737.817.106.327.075.914-.066 1.188-.239.463-.698.76-1.219.79a1.27 1.27 0 01-1.015-.349 1.422 1.422 0 01-.495-.984c-.097-1.153 1.042-1.956 2.058-1.462z"/><path d="M62.164 53.727h.279v-.834h.154c.212 0 .367.132.587.512.177.3.2.322.35.322.087 0 .158-.022.158-.048 0-.067-.309-.552-.45-.702l-.115-.124.168-.08c.291-.136.388-.463.216-.746-.12-.194-.318-.247-.896-.247h-.45v1.947zm1.02-1.576c.049.053.093.132.093.185 0 .19-.163.279-.512.279h-.322v-.557h.322c.265 0 .344.018.42.093z"/></g><defs><clipPath id="clip0_365_53838"><path fill="#fff" transform="translate(.32)" d="M0 0h73.22v73.22H0z"/></clipPath></defs></svg>