<svg width="74" height="74" fill="none" xmlns="http://www.w3.org/2000/svg"><g clip-path="url(#clip0_365_53840)" fill="#231F20"><path d="M10.038 36.883s.104.042.104-.057c0 0-.217-.364-.431-.376 0 0-.22-.069-.15.077.065.145.17.253.477.356zm-.344 1.27s-.408-.074-.682-.043c-.279.036-.128.124-.01.18.11.057.35.112.709.112.351 0 .09-.192-.017-.25zm-.821-.543c.05.01.413.087.607.134.194.04.231.04.137-.11 0 0-.32-.275-.801-.202-.477.064.012.169.057.178zm.128-.715l.441.312s.06.07.072-.055c0 0-.072-.326-.455-.389-.391-.068-.058.132-.058.132zm.844-3.292c-.069.158-.024.032.012.088.032.057.49.157.653.103l.042-.18-.078-.223s-.562.055-.629.212z"/><path d="M15.428 31.661c-.305.103-.236-.187-.236-.187 0-.178.4-.75.4-.75.091-.135-.033-.124-.033-.124-.597.2-.71.801-.71.801l.011 1.098c.023.259-.054.436-.054.436-.414 1.003-2.231 2.084-2.231 2.084v-.365c.022-.716.617-.646.617-.646l-.513-.201c-.298-.104-.274.11-.274.11l-.27 1.538c0 .135-.108.146-.108.146l-1.017.056c-.17-.013-.134.088-.134.088l-.016.211c-.03.17-.318-.013-.318-.013l-.638-.518c-.529-.396-1.006-.396-1.36-.423-.356-.035-.851-.397-.851-.397l-1.615-1.946c-.559-.695-.313-1.244-.313-1.244l.376-.664c.313-.369.06-.7.06-.7l-.246-.489c-.25-.483-.282-.574-.19-.755.096-.185.655-.548.655-.548.118-.08.261-.044.261-.044.648.324 1.75 1.013 1.75 1.013 2.73-.655 5.342.818 5.64.958.296.147 1.35-.007 1.35-.007s.835-.147.856.568c.023.712-.849.914-.849.914zm.128 4.73s-3.323 1.974-4.071 2.246c-.743.276-1.833.276-1.833.276-4.098-.153-6.342-1.305-6.342-1.305l-.9-4.552 2.794-5.223c1.156-.455 4.664-.728 4.664-.728.59.306 3.633.882 3.633.882.935.724 1.308 1.941 1.308 1.941h-.837c-2.394-1.515-5.812-1.06-5.812-1.06-.279-.308-1.46-.82-1.46-.82-.467-.215-.622.118-.622.118l-.433.394c-.406.338-.157.638-.157.638l.277.64c.25.514.123.786.123.786l-.334.579c-.315.456-.066.97-.066.97.839 1.092 1.99 2.523 1.99 2.523.215.089.94.65.94.65.465 0 1.142.229 1.142.229l.867.637s.281.275.778.12c.5-.152 1.181-.486 1.181-.486l.064-.421c3.2-2.216 2.731-3.436 2.731-3.436l.531-.087c.932 1.852-.156 4.488-.156 4.488zM8.783 24.407c-8.733.635-8.235 8.1-8.235 8.1v13.234c0 2.12 2.702 2.095 2.702 2.095 3.211.01 3.077-2.095 3.077-2.095v-5.129c.714.516 3.605.362 3.605.362s8.64-.288 8.544-8.621c-.09-8.225-9.693-7.946-9.693-7.946z"/><path d="M13.278 43.513c.098 2.17 1.754 4.148 4.994 4.317 3.24.172 4.605-3.25 4.677-3.682.074-.432-.11-.829-.597-.977-.486-.145-1.071-.308-1.388.193-.317.5-1.158 2.149-2.62 2.137-1.46-.01-2.653-.772-2.728-2.32-.073-1.543 1.706-2.384 3.533-1.816l-2.12 1.317s-.73.649.037 1.455c.768.807 1.414.318 1.414.318s2.8-1.522 3.408-2.659c.61-1.137-.06-3.147-3.666-2.92-3.605.226-5.042 2.465-4.944 4.637zm18.932 3.391v-4.941s.034-2.865-4.24-2.888c-4.276-.023-4.288 3.635-4.288 3.635v4.146s-.035.98 1.352.98c1.048 0 1.109-.784 1.109-.784V42.7s-.123-1.444 1.692-1.467c1.815-.024 1.84 1.024 1.84 1.024s-.054 4.071 0 4.714c.035.444.34.763 1.363.763 1.183 0 1.172-.83 1.172-.83zm3.887-5.637l3.714-.009s.84 0 .84-.934c0-.931-.974-.964-.974-.964h-3.483c.012-2.353 2.118-1.91 3.325-1.944 1.205-.033 1.083-.966 1.083-.966.025-1.26-2.46-1.239-2.46-1.239-4.615 0-4.433 3.535-4.433 3.535v8.195s.023.909 1.255.896c1.085-.01 1.12-.84 1.12-.84l.013-5.73zm7.06-2.414c.945 0 1.711-.713 1.711-1.596 0-.881-.766-1.596-1.71-1.596-.945 0-1.714.715-1.714 1.596 0 .883.769 1.596 1.713 1.596zm1.095 8.145v-6.387c0-.625-.539-.842-1.205-.842-.667 0-1.206.217-1.206.842v6.387c0 .621.54.839 1.206.839.666 0 1.205-.218 1.205-.839zM54.53 43.17c-.486-.147-1.071-.305-1.389.193-.317.501-1.158 2.149-2.619 2.139-1.462-.012-2.654-.775-2.728-2.318-.072-1.546 1.706-2.387 3.534-1.82l-2.123 1.319s-.728.646.04 1.452c.768.808 1.412.32 1.412.32s2.802-1.522 3.408-2.66c.613-1.135-.059-3.146-3.665-2.918-3.602.225-5.042 2.465-4.943 4.636.097 2.17 1.753 4.146 4.993 4.318 3.24.168 4.604-3.251 4.677-3.683.072-.432-.11-.829-.598-.977zm3.17 4.667c.665 0 1.203-.218 1.203-.84V36.45c0-.622-.538-.84-1.203-.84-.669 0-1.21.218-1.21.84v10.548c0 .622.541.84 1.21.84zm11.346-12.24c-1.271.03-1.13 1.055-1.13 1.055v6.925s-.095 1.946-2.67 1.946c-2.354 0-2.72-1.782-2.672-2.287.048-.505.208-1.897 2.576-1.957 0 0 1.08-.03 1.066-1.054 0 0 .078-1.038-.988-1.083-1.063-.044-5.118.43-4.96 4.11.16 3.677 3.244 4.63 5.28 4.583 2.034-.044 4.658-.83 4.88-3.53v-7.907s-.111-.83-1.382-.8zm3.362 2.439c-.593 0-1.04-.466-1.04-1.053 0-.58.447-1.054 1.024-1.054h.007c.585 0 1.024.475 1.024 1.062 0 .579-.439 1.054-1.015 1.045zm0-2.372h-.009c-.762 0-1.372.579-1.372 1.32 0 .74.61 1.326 1.372 1.326.764 0 1.364-.587 1.364-1.327s-.6-1.32-1.355-1.32z"/><path d="M72.342 36.926h-.145v-.377a.668.668 0 01.17-.017c.194 0 .285.08.285.202 0 .135-.139.192-.31.192zm.366.096v-.014c.154-.05.276-.154.276-.314a.328.328 0 00-.139-.282c-.088-.065-.201-.105-.453-.105-.22 0-.39.023-.511.04v1.32h.308v-.524h.146c.17 0 .25.065.276.2.04.162.064.276.105.323h.325a1.16 1.16 0 01-.097-.322c-.04-.177-.106-.281-.236-.322z"/></g><defs><clipPath id="clip0_365_53840"><path fill="#fff" transform="translate(.543)" d="M0 0h73.22v73.22H0z"/></clipPath></defs></svg>